<?xml version="1.0" encoding="iso-8859-1"?>
<!-- Generator: Adobe Illustrator 18.1.1, SVG Export Plug-In . SVG Version: 6.00 Build 0)  -->
<svg version="1.1" id="Capa_1" xmlns="http://www.w3.org/2000/svg" xmlns:xlink="http://www.w3.org/1999/xlink" x="0px" y="0px"
	 viewBox="0 0 14 14" style="enable-background:new 0 0 14 14;" xml:space="preserve">
<g>
	<g>
		<path style="fill:#030104;" d="M2.011,10h9.994c0.473,0,0.877,0.334,0.979,0.78L12.008,2c0-1.104-0.896-2-2-2h-6
			c-1.104,0-2,0.896-2,2l-1.016,9l0.016-0.001C1.008,10.441,1.457,10,2.011,10z"/>
		<path style="fill:#030104;" d="M11.513,11h-9.01c-0.825,0-1.495,0.666-1.495,1.5c0,0.828,0.68,1.5,1.495,1.5h9.01
			c0.825,0,1.495-0.666,1.495-1.5C13.008,11.672,12.328,11,11.513,11z M11.008,13h-8v-1h8V13z"/>
	</g>
</g>
<g>
</g>
<g>
</g>
<g>
</g>
<g>
</g>
<g>
</g>
<g>
</g>
<g>
</g>
<g>
</g>
<g>
</g>
<g>
</g>
<g>
</g>
<g>
</g>
<g>
</g>
<g>
</g>
<g>
</g>
</svg>
