<?xml version="1.0" encoding="iso-8859-1"?>
<!-- Generator: Adobe Illustrator 18.1.1, SVG Export Plug-In . SVG Version: 6.00 Build 0)  -->
<svg version="1.1" id="Capa_1" xmlns="http://www.w3.org/2000/svg" xmlns:xlink="http://www.w3.org/1999/xlink" x="0px" y="0px"
	 viewBox="0 0 15 15" style="enable-background:new 0 0 15 15;" xml:space="preserve">
<g>
	<path style="fill:#030104;" d="M0.5,15h14V0h-14V15z M12.5,1h1v1h-1V1z M12.5,3h1v1h-1V3z M12.5,5h1v1h-1V5z M12.5,7h1v1h-1V7z
		 M12.5,9h1v1h-1V9z M12.5,11h1v1h-1V11z M12.5,13h1v1h-1V13z M3.5,1h8v6h-8V1z M3.5,8h8v6h-8V8z M1.5,1h1v1h-1V1z M1.5,3h1v1h-1V3z
		 M1.5,5h1v1h-1V5z M1.5,7h1v1h-1V7z M1.5,9h1v1h-1V9z M1.5,11h1v1h-1V11z M1.5,13h1v1h-1V13z"/>
</g>
<g>
</g>
<g>
</g>
<g>
</g>
<g>
</g>
<g>
</g>
<g>
</g>
<g>
</g>
<g>
</g>
<g>
</g>
<g>
</g>
<g>
</g>
<g>
</g>
<g>
</g>
<g>
</g>
<g>
</g>
</svg>
