<?xml version="1.0" encoding="iso-8859-1"?>
<!-- Generator: Adobe Illustrator 18.1.1, SVG Export Plug-In . SVG Version: 6.00 Build 0)  -->
<svg version="1.1" id="Capa_1" xmlns="http://www.w3.org/2000/svg" xmlns:xlink="http://www.w3.org/1999/xlink" x="0px" y="0px"
	 viewBox="0 0 16 16" style="enable-background:new 0 0 16 16;" xml:space="preserve">
<g>
	<path style="fill:#030104;" d="M11.003,0H4.997C4.446,0,4,0.444,4,1.001v13.998C4,15.552,4.453,16,4.997,16h6.006
		C11.554,16,12,15.556,12,14.999V1.001C12,0.448,11.547,0,11.003,0z M8,14c-1.657,0-3-1.343-3-3s1.343-3,3-3s3,1.343,3,3
		S9.657,14,8,14z M11,6H5V1h6V6z"/>
	<circle style="fill:#030104;" cx="8" cy="11" r="1"/>
</g>
<g>
</g>
<g>
</g>
<g>
</g>
<g>
</g>
<g>
</g>
<g>
</g>
<g>
</g>
<g>
</g>
<g>
</g>
<g>
</g>
<g>
</g>
<g>
</g>
<g>
</g>
<g>
</g>
<g>
</g>
</svg>
