<?xml version="1.0" encoding="iso-8859-1"?>
<!-- Generator: Adobe Illustrator 18.1.1, SVG Export Plug-In . SVG Version: 6.00 Build 0)  -->
<svg version="1.1" id="Capa_1" xmlns="http://www.w3.org/2000/svg" xmlns:xlink="http://www.w3.org/1999/xlink" x="0px" y="0px"
	 viewBox="0 0 16 16" style="enable-background:new 0 0 16 16;" xml:space="preserve">
<g>
	<path style="fill:#030104;" d="M14.999,3H1.001C0.448,3,0,3.456,0,3.995v8.01C0,12.555,0.444,13,1.001,13h13.998
		C15.552,13,16,12.544,16,12.005v-8.01C16,3.445,15.556,3,14.999,3z M12,5h1v1h-1V5z M12,7h1v1h-1V7z M10,5h1v1h-1V5z M10,7h1v1h-1
		V7z M8,5h1v1H8V5z M10,9v1H9V9H10z M8,7h1v1H8V7z M6,5h1v1H6V5z M8,9v1H7V9H8z M6,7h1v1H6V7z M4,5h1v1H4V5z M6,9v1H5V9H6z M1,5h2v1
		H1V5z M1,7h2v1H1V7z M2,12H1v-1h1V12z M2,10H1V9h1V10z M4,12H3v-1h1V12z M4,10H3V9h1V10z M4,7h1v1H4V7z M11,12H5v-1h6V12z M11,9h1
		v1h-1V9z M13,12h-1v-1h1V12z M15,12h-1v-1h1V12z M15,10h-2V9h2V10z M15,8h-1V6h1V8z"/>
</g>
<g>
</g>
<g>
</g>
<g>
</g>
<g>
</g>
<g>
</g>
<g>
</g>
<g>
</g>
<g>
</g>
<g>
</g>
<g>
</g>
<g>
</g>
<g>
</g>
<g>
</g>
<g>
</g>
<g>
</g>
</svg>
