<?xml version="1.0" encoding="iso-8859-1"?>
<!-- Generator: Adobe Illustrator 18.1.1, SVG Export Plug-In . SVG Version: 6.00 Build 0)  -->
<svg version="1.1" id="Capa_1" xmlns="http://www.w3.org/2000/svg" xmlns:xlink="http://www.w3.org/1999/xlink" x="0px" y="0px"
	 viewBox="0 0 16 16" style="enable-background:new 0 0 16 16;" xml:space="preserve">
<g>
	<path style="fill:#030104;" d="M15,4c0-2.209-1.791-4-4-4H1v2h2v12H1v2h10c2.209,0,4-1.791,4-4s-1.791-4-4-4
		C13.209,8,15,6.209,15,4z M13,11.5c0,1.381-1.119,2.5-2.5,2.5H5v-2.5V9h5.5C11.881,9,13,10.119,13,11.5z M10.5,7H5V4.5V2h5.5
		C11.881,2,13,3.119,13,4.5S11.881,7,10.5,7z"/>
</g>
<g>
</g>
<g>
</g>
<g>
</g>
<g>
</g>
<g>
</g>
<g>
</g>
<g>
</g>
<g>
</g>
<g>
</g>
<g>
</g>
<g>
</g>
<g>
</g>
<g>
</g>
<g>
</g>
<g>
</g>
</svg>
