<?xml version="1.0" encoding="iso-8859-1"?>
<!-- Generator: Adobe Illustrator 18.1.1, SVG Export Plug-In . SVG Version: 6.00 Build 0)  -->
<svg version="1.1" id="Capa_1" xmlns="http://www.w3.org/2000/svg" xmlns:xlink="http://www.w3.org/1999/xlink" x="0px" y="0px"
	 viewBox="0 0 16 16" style="enable-background:new 0 0 16 16;" xml:space="preserve">
<g>
	<path style="fill:#030104;" d="M11,3.5v1v2.028h0.973V4.5h0.814l2.22,3h-1.013h-2.988H4.994H2.006H0.993l2.22-3h0.814v2.028H5V4.5
		v-1H3l-3,4v1h0.269C0.098,8.795,0,9.139,0,9.505v0.99C0,11.603,0.887,12.5,2.006,12.5h2.988C6.102,12.5,7,11.605,7,10.496V9.505
		C7,9.139,6.903,8.795,6.732,8.5h2.536C9.098,8.795,9,9.139,9,9.505v0.99c0,1.108,0.887,2.005,2.006,2.005h2.988
		c1.107,0,2.006-0.896,2.006-2.005v-0.99c0-0.366-0.098-0.71-0.268-1.005H16v-1l-3-4C13,3.5,11,3.5,11,3.5z M6,10.193
		c0,0.729-0.582,1.308-1.301,1.308H2.301C1.573,11.5,1,10.916,1,10.193V9.807C1,9.078,1.582,8.5,2.301,8.5h2.398
		C5.427,8.5,6,9.085,6,9.807V10.193z M15,10.193c0,0.729-0.582,1.308-1.301,1.308h-2.398c-0.728,0-1.301-0.585-1.301-1.308V9.807
		C10,9.078,10.582,8.5,11.301,8.5h2.398C14.427,8.5,15,9.085,15,9.807V10.193z"/>
</g>
<g>
</g>
<g>
</g>
<g>
</g>
<g>
</g>
<g>
</g>
<g>
</g>
<g>
</g>
<g>
</g>
<g>
</g>
<g>
</g>
<g>
</g>
<g>
</g>
<g>
</g>
<g>
</g>
<g>
</g>
</svg>
