<?xml version="1.0" encoding="iso-8859-1"?>
<!-- Generator: Adobe Illustrator 18.1.1, SVG Export Plug-In . SVG Version: 6.00 Build 0)  -->
<svg version="1.1" id="Capa_1" xmlns="http://www.w3.org/2000/svg" xmlns:xlink="http://www.w3.org/1999/xlink" x="0px" y="0px"
	 viewBox="0 0 14 14" style="enable-background:new 0 0 14 14;" xml:space="preserve">
<g>
	<circle style="fill:#030104;" cx="7" cy="8" r="2"/>
	<path style="fill:#030104;" d="M12.993,4H11V2.991C11,2.443,10.547,2,10.003,2H3.997C3.446,2,3,2.451,3,2.991V4H1.007
		C0.451,4,0,4.453,0,4.997v6.006C0,11.554,0.45,12,1.007,12h11.986C13.549,12,14,11.547,14,11.003V4.997C14,4.446,13.55,4,12.993,4z
		 M7,11c-1.657,0-3-1.343-3-3s1.343-3,3-3s3,1.343,3,3S8.657,11,7,11z"/>
</g>
<g>
</g>
<g>
</g>
<g>
</g>
<g>
</g>
<g>
</g>
<g>
</g>
<g>
</g>
<g>
</g>
<g>
</g>
<g>
</g>
<g>
</g>
<g>
</g>
<g>
</g>
<g>
</g>
<g>
</g>
</svg>
