<?xml version="1.0" encoding="iso-8859-1"?>
<!-- Generator: Adobe Illustrator 18.1.1, SVG Export Plug-In . SVG Version: 6.00 Build 0)  -->
<svg version="1.1" id="Capa_1" xmlns="http://www.w3.org/2000/svg" xmlns:xlink="http://www.w3.org/1999/xlink" x="0px" y="0px"
	 viewBox="0 0 14 14" style="enable-background:new 0 0 14 14;" xml:space="preserve">
<g>
	<path style="fill:#030104;" d="M12.993,0H1.007C0.451,0,0,0.45,0,1.007v11.986C0,13.549,0.45,14,1.007,14h11.986
		C13.549,14,14,13.55,14,12.993V1.007C14,0.451,13.55,0,12.993,0z M3,13H1v-2h2V13z M3,3H1V1h2V3z M9,9.009
		C9,9.549,8.548,10,7.99,10H6.01C5.443,10,5,9.557,5,9.009V4.991C5,4.451,5.452,4,6.01,4h1.98C8.557,4,9,4.443,9,4.991V9.009z
		 M13,13h-2v-2h2V13z M13,3h-2V1h2V3z"/>
	<path style="fill:#030104;" d="M6,5h2v4H6V5z"/>
</g>
<g>
</g>
<g>
</g>
<g>
</g>
<g>
</g>
<g>
</g>
<g>
</g>
<g>
</g>
<g>
</g>
<g>
</g>
<g>
</g>
<g>
</g>
<g>
</g>
<g>
</g>
<g>
</g>
<g>
</g>
</svg>
