<?xml version="1.0" encoding="iso-8859-1"?>
<!-- Generator: Adobe Illustrator 18.1.1, SVG Export Plug-In . SVG Version: 6.00 Build 0)  -->
<svg version="1.1" id="Capa_1" xmlns="http://www.w3.org/2000/svg" xmlns:xlink="http://www.w3.org/1999/xlink" x="0px" y="0px"
	 viewBox="0 0 16 16" style="enable-background:new 0 0 16 16;" xml:space="preserve">
<g>
	<path style="fill:#030104;" d="M8,0C3.582,0,0,3.582,0,8s3.582,8,8,8s8-3.582,8-8S12.418,0,8,0z M8.129,2
		c1.285,0,2.48,0.371,3.477,1.007L9.8,5.6C9.298,5.223,8.675,5,8,5C7.4,5,6.842,5.176,6.373,5.479l-1.72-2.472
		C5.647,2.371,6.843,2,8.129,2z M4.298,13C2.898,11.833,2,10.027,2,8h3c0,0.98,0.472,1.854,1.201,2.4L4.298,13z M8,10
		c-1.104,0-2-0.896-2-2s0.896-2,2-2s2,0.896,2,2S9.104,10,8,10z M11.702,13l-1.903-2.6C10.527,9.854,11,8.98,11,8h3
		C14,10.027,13.102,11.833,11.702,13z"/>
</g>
<g>
</g>
<g>
</g>
<g>
</g>
<g>
</g>
<g>
</g>
<g>
</g>
<g>
</g>
<g>
</g>
<g>
</g>
<g>
</g>
<g>
</g>
<g>
</g>
<g>
</g>
<g>
</g>
<g>
</g>
</svg>
