<?xml version="1.0" encoding="iso-8859-1"?>
<!-- Generator: Adobe Illustrator 18.1.1, SVG Export Plug-In . SVG Version: 6.00 Build 0)  -->
<svg version="1.1" id="Capa_1" xmlns="http://www.w3.org/2000/svg" xmlns:xlink="http://www.w3.org/1999/xlink" x="0px" y="0px"
	 viewBox="0 0 14 14" style="enable-background:new 0 0 14 14;" xml:space="preserve">
<g>
	<path style="fill:#030104;" d="M10.5,1.988C8.948,1.988,7,2.909,7,4.013c0-1.104-1.948-2.025-3.5-2.025S0,2.909,0,4.013v8
		c0-1.059,1.965-1.998,3.5-1.998S7,11.071,7,12.012c0-1.059,1.965-1.998,3.5-1.998s3.5,1.057,3.5,1.998v-8
		C14,2.909,12.052,1.988,10.5,1.988z M6,10.012c0-0.659-1.403-0.995-2.5-0.995S1,9.271,1,10.012v-5.6c0-0.773,1.392-1.418,2.5-1.418
		S6,3.64,6,4.414V10.012z M13,10.012c0-0.659-1.403-0.995-2.5-0.995S8,9.271,8,10.012v-5.6c0-0.773,1.392-1.418,2.5-1.418
		S13,3.64,13,4.414V10.012z"/>
</g>
<g>
</g>
<g>
</g>
<g>
</g>
<g>
</g>
<g>
</g>
<g>
</g>
<g>
</g>
<g>
</g>
<g>
</g>
<g>
</g>
<g>
</g>
<g>
</g>
<g>
</g>
<g>
</g>
<g>
</g>
</svg>
