<?xml version="1.0" encoding="iso-8859-1"?>
<!-- Generator: Adobe Illustrator 18.1.1, SVG Export Plug-In . SVG Version: 6.00 Build 0)  -->
<svg version="1.1" id="Capa_1" xmlns="http://www.w3.org/2000/svg" xmlns:xlink="http://www.w3.org/1999/xlink" x="0px" y="0px"
	 viewBox="0 0 13 13" style="enable-background:new 0 0 13 13;" xml:space="preserve">
<g>
	<path style="fill:#030104;" d="M10.5,5V3c0-1.5-1.5-3-3-3h-2c-1.5,0-3,1.5-3,3v2c-1,0-2,1-2,2v4c0,1,1,2,2,2h8c1,0,2-1,2-2V7
		C12.5,6,11.5,5,10.5,5z M9.5,5h-6V3c0-1,1-2,2-2h2c1,0,2,1,2,2V5z"/>
</g>
<g>
</g>
<g>
</g>
<g>
</g>
<g>
</g>
<g>
</g>
<g>
</g>
<g>
</g>
<g>
</g>
<g>
</g>
<g>
</g>
<g>
</g>
<g>
</g>
<g>
</g>
<g>
</g>
<g>
</g>
</svg>
