<?xml version="1.0" encoding="iso-8859-1"?>
<!-- Generator: Adobe Illustrator 18.1.1, SVG Export Plug-In . SVG Version: 6.00 Build 0)  -->
<svg version="1.1" id="Capa_1" xmlns="http://www.w3.org/2000/svg" xmlns:xlink="http://www.w3.org/1999/xlink" x="0px" y="0px"
	 viewBox="0 0 11 11" style="enable-background:new 0 0 11 11;" xml:space="preserve">
<g>
	<path style="fill:#030104;" d="M8,5h3V2H8V5z M9,3h1v1H9V3z"/>
	<path style="fill:#030104;" d="M0,9h3V6H0V9z M1,7h1v1H1V7z"/>
	<path style="fill:#030104;" d="M4,9h3V6H4V9z M5,7h1v1H5V7z"/>
	<path style="fill:#030104;" d="M3,2H0v3h3V2z M2,4H1V3h1V4z"/>
	<path style="fill:#030104;" d="M7,2H4v3h3V2z M6,4H5V3h1V4z"/>
	<path style="fill:#030104;" d="M8,6v3h3V6H8z M10,8H9V7h1V8z"/>
</g>
<g>
</g>
<g>
</g>
<g>
</g>
<g>
</g>
<g>
</g>
<g>
</g>
<g>
</g>
<g>
</g>
<g>
</g>
<g>
</g>
<g>
</g>
<g>
</g>
<g>
</g>
<g>
</g>
<g>
</g>
</svg>
