<?xml version="1.0" encoding="iso-8859-1"?>
<!-- Generator: Adobe Illustrator 18.1.1, SVG Export Plug-In . SVG Version: 6.00 Build 0)  -->
<svg version="1.1" id="Capa_1" xmlns="http://www.w3.org/2000/svg" xmlns:xlink="http://www.w3.org/1999/xlink" x="0px" y="0px"
	 viewBox="0 0 16 16" style="enable-background:new 0 0 16 16;" xml:space="preserve">
<g>
	<path style="fill:#030104;" d="M8,6h1v1H8V6z"/>
	<path style="fill:#030104;" d="M11,7h1v1h-1V7z"/>
	<path style="fill:#030104;" d="M6,6h1v1H6V6z"/>
	<circle style="fill:#030104;" cx="10" cy="13" r="1"/>
	<path style="fill:#030104;" d="M13,4h-0.965H0l2,7h11l0.994-6.96L14,4.034V4V3l2-0.004V2h-3V4z M13,6h-1v1h1v1h-1v1h-1v1h-1V9H9v1
		H8V9H7v1H6V9H5v1H4V9H3V8H2V7h1V6H2V5h1v1h1V5h1v1h1V5h1v1h1V5h1v1h1V5h1v1h1V5h1V6z"/>
	<circle style="fill:#030104;" cx="5" cy="13" r="1"/>
	<path style="fill:#030104;" d="M10,8h1v1h-1V8z"/>
	<path style="fill:#030104;" d="M4,8h1v1H4V8z"/>
	<path style="fill:#030104;" d="M4,6h1v1H4V6z"/>
	<path style="fill:#030104;" d="M5,7h1v1H5V7z"/>
	<path style="fill:#030104;" d="M9,7h1v1H9V7z"/>
	<path style="fill:#030104;" d="M7,7h1v1H7V7z"/>
	<path style="fill:#030104;" d="M3,7h1v1H3V7z"/>
	<path style="fill:#030104;" d="M8,8h1v1H8V8z"/>
	<path style="fill:#030104;" d="M10,6h1v1h-1V6z"/>
	<path style="fill:#030104;" d="M6,8h1v1H6V8z"/>
</g>
<g>
</g>
<g>
</g>
<g>
</g>
<g>
</g>
<g>
</g>
<g>
</g>
<g>
</g>
<g>
</g>
<g>
</g>
<g>
</g>
<g>
</g>
<g>
</g>
<g>
</g>
<g>
</g>
<g>
</g>
</svg>
