<?xml version="1.0" encoding="iso-8859-1"?>
<!-- Generator: Adobe Illustrator 18.1.1, SVG Export Plug-In . SVG Version: 6.00 Build 0)  -->
<svg version="1.1" id="Capa_1" xmlns="http://www.w3.org/2000/svg" xmlns:xlink="http://www.w3.org/1999/xlink" x="0px" y="0px"
	 viewBox="0 0 16 16" style="enable-background:new 0 0 16 16;" xml:space="preserve">
<g>
	<path style="fill:#030104;" d="M10.009,16C10.557,16,11,15.556,11,14.999V13H5v1.999C5,15.552,5.451,16,5.991,16H10.009z"/>
	<circle style="fill:#030104;" cx="8" cy="5" r="1"/>
	<path style="fill:#030104;" d="M10.009,0H5.991C5.443,0,5,0.444,5,1.001V12h6V1.001C11,0.448,10.549,0,10.009,0z M8,7
		C6.896,7,6,6.104,6,5s0.896-2,2-2s2,0.896,2,2S9.104,7,8,7z"/>
</g>
<g>
</g>
<g>
</g>
<g>
</g>
<g>
</g>
<g>
</g>
<g>
</g>
<g>
</g>
<g>
</g>
<g>
</g>
<g>
</g>
<g>
</g>
<g>
</g>
<g>
</g>
<g>
</g>
<g>
</g>
</svg>
