<?xml version="1.0" encoding="iso-8859-1"?>
<!-- Generator: Adobe Illustrator 18.1.1, SVG Export Plug-In . SVG Version: 6.00 Build 0)  -->
<svg version="1.1" id="Capa_1" xmlns="http://www.w3.org/2000/svg" xmlns:xlink="http://www.w3.org/1999/xlink" x="0px" y="0px"
	 viewBox="0 0 16 16" style="enable-background:new 0 0 16 16;" xml:space="preserve">
<g>
	<path style="fill:#030104;" d="M12,2H4V0H0v4h2v8H0v4h4v-2h8v2h4v-4h-2V4h2V0h-4V2z M5,13H4v-1H3v-1h2V13z M5,10H3V6h2V10z M5,5H3
		V4h1V3h1V5z M10,13H6v-2h4V13z M10,10H6V6h4V10z M10,5H6V3h4V5z M13,12h-1v1h-1v-2h2V12z M13,10h-2V6h2V10z M13,5h-2V3h1v1h1V5z"/>
</g>
<g>
</g>
<g>
</g>
<g>
</g>
<g>
</g>
<g>
</g>
<g>
</g>
<g>
</g>
<g>
</g>
<g>
</g>
<g>
</g>
<g>
</g>
<g>
</g>
<g>
</g>
<g>
</g>
<g>
</g>
</svg>
