<?xml version="1.0" encoding="iso-8859-1"?>
<!-- Generator: Adobe Illustrator 18.1.1, SVG Export Plug-In . SVG Version: 6.00 Build 0)  -->
<svg version="1.1" id="Capa_1" xmlns="http://www.w3.org/2000/svg" xmlns:xlink="http://www.w3.org/1999/xlink" x="0px" y="0px"
	 viewBox="0 0 16 16" style="enable-background:new 0 0 16 16;" xml:space="preserve">
<g>
	<path style="fill:#030104;" d="M1.5,16h13V0h-13V16z M8.5,1h5v2h-5V1z M8.5,4h5v2h-5V4z M8.5,7h5v2h-5V7z M8.5,10h5v2h-5V10z
		 M8.5,13h5v2h-5V13z M2.5,1h5v2h-5V1z M2.5,4h5v2h-5V4z M2.5,7h5v2h-5V7z M2.5,10h5v2h-5V10z M2.5,13h5v2h-5V13z"/>
</g>
<g>
</g>
<g>
</g>
<g>
</g>
<g>
</g>
<g>
</g>
<g>
</g>
<g>
</g>
<g>
</g>
<g>
</g>
<g>
</g>
<g>
</g>
<g>
</g>
<g>
</g>
<g>
</g>
<g>
</g>
</svg>
